<svg id="Group_46" data-name="Group 46" xmlns="http://www.w3.org/2000/svg" xmlns:xlink="http://www.w3.org/1999/xlink" width="66.379" height="79.262" viewBox="0 0 66.379 79.262">
  <defs>
    <clipPath id="clip-path">
      <rect id="Rectangle_122" data-name="Rectangle 122" width="66.379" height="79.262" fill="#fff"/>
    </clipPath>
  </defs>
  <g id="Group_45" data-name="Group 45" clip-path="url(#clip-path)">
    <path id="Path_41" data-name="Path 41" d="M62.438,32.2H26.787l8.382-8.382h11.9V3.94a3.933,3.933,0,0,0-6.713-2.781L1.16,40.35a3.933,3.933,0,0,0,2.78,6.714H19.315V47.1H39.592L31.21,55.48h-11.9V75.321A3.933,3.933,0,0,0,26.028,78.1L65.219,38.911A3.933,3.933,0,0,0,62.438,32.2m-37.5.032a6.322,6.322,0,0,0-.745.127,6.322,6.322,0,0,1,.745-.127m-1.643.4a6.2,6.2,0,0,0-1.016.51,6.2,6.2,0,0,1,1.016-.51M20.07,35.475a6.2,6.2,0,0,0-.3.66,6.2,6.2,0,0,1,.3-.66m26.5,7.764A6.264,6.264,0,0,1,40.8,47.064a6.257,6.257,0,0,0,6.135-5,6.22,6.22,0,0,1-.365,1.176" transform="translate(0 0)" fill="#fff"/>
  </g>
</svg>
