<svg id="Group_61" data-name="Group 61" xmlns="http://www.w3.org/2000/svg" xmlns:xlink="http://www.w3.org/1999/xlink" width="1098.928" height="776.602" viewBox="0 0 1098.928 776.602">
  <defs>
    <clipPath id="clip-path">
      <rect id="Rectangle_131" data-name="Rectangle 131" width="1098.928" height="776.602" fill="none"/>
    </clipPath>
    <clipPath id="clip-path-2">
      <path id="Path_42" data-name="Path 42" d="M35.336,0A20.5,20.5,0,0,0,14.83,20.506V527.675H793.879V20.506A20.5,20.5,0,0,0,773.372,0Z" transform="translate(-14.83)" fill="none"/>
    </clipPath>
    <linearGradient id="linear-gradient" x1="-0.197" y1="1.057" x2="-0.183" y2="1.057" gradientUnits="objectBoundingBox">
      <stop offset="0" stop-color="#323232"/>
      <stop offset="1" stop-color="#1c1c1c"/>
    </linearGradient>
    <clipPath id="clip-path-3">
      <rect id="Rectangle_130" data-name="Rectangle 130" width="1098.928" height="776.6" fill="none"/>
    </clipPath>
    <clipPath id="clip-path-4">
      <rect id="Rectangle_126" data-name="Rectangle 126" width="134.83" height="8.887" fill="#e4e7ec"/>
    </clipPath>
    <clipPath id="clip-path-5">
      <rect id="Rectangle_127" data-name="Rectangle 127" width="135.454" height="9.228" fill="none"/>
    </clipPath>
    <clipPath id="clip-path-6">
      <rect id="Rectangle_128" data-name="Rectangle 128" width="779.055" height="527.674" fill="#ebeff6"/>
    </clipPath>
  </defs>
  <g id="Group_60" data-name="Group 60" clip-path="url(#clip-path)">
    <g id="Group_48" data-name="Group 48" transform="translate(156.515)">
      <g id="Group_47" data-name="Group 47" clip-path="url(#clip-path-2)">
        <rect id="Rectangle_124" data-name="Rectangle 124" width="783.678" height="920.959" transform="translate(-185.148 451.804) rotate(-67.716)" fill="url(#linear-gradient)"/>
      </g>
    </g>
    <g id="Group_59" data-name="Group 59" transform="translate(0 0.002)">
      <g id="Group_58" data-name="Group 58" clip-path="url(#clip-path-3)">
        <path id="Path_43" data-name="Path 43" d="M793.879,527.675H14.83V20.506A20.505,20.505,0,0,1,35.326,0H773.372a20.508,20.508,0,0,1,20.506,20.506Z" transform="translate(141.685 -0.002)" fill="#fff"/>
        <rect id="Rectangle_125" data-name="Rectangle 125" width="743.028" height="467.455" transform="translate(174.53 32.432)" fill="#fafbfd"/>
        <path id="Path_44" data-name="Path 44" d="M916.408,50.475v1.91c0,4.148-2.649,8.095-6.67,11.43-8.095,6.807-21.572,11.367-29.868,11.367H45.107c-8.306,0-21.773-4.559-29.878-11.367-4.01-3.335-6.67-7.282-6.67-11.43v-1.91Z" transform="translate(81.772 482.232)" fill="#e4e7ec"/>
        <path id="Path_45" data-name="Path 45" d="M916.408,53.461v3.472c0,4.158-2.649,8.105-6.67,11.43H15.229c-4.01-3.324-6.67-7.272-6.67-11.43V53.461A3.48,3.48,0,0,1,12.031,50h900.9a3.473,3.473,0,0,1,3.472,3.462" transform="translate(81.772 477.685)" fill="#fdfdfe"/>
        <g id="Group_51" data-name="Group 51" transform="translate(686.157 527.663)" opacity="0.45" style="mix-blend-mode: multiply;isolation: isolate">
          <g id="Group_50" data-name="Group 50">
            <g id="Group_49" data-name="Group 49" clip-path="url(#clip-path-4)">
              <path id="Path_46" data-name="Path 46" d="M148.126,50H65.014a9.685,9.685,0,0,0,9.625,8.886H190.226A9.667,9.667,0,0,0,199.84,50Z" transform="translate(-65.018 -49.997)" fill="#e4e7ec"/>
            </g>
          </g>
        </g>
        <g id="Group_54" data-name="Group 54" transform="translate(685.845 527.635)" style="mix-blend-mode: screen;isolation: isolate">
          <g id="Group_53" data-name="Group 53">
            <g id="Group_52" data-name="Group 52" clip-path="url(#clip-path-5)">
              <path id="Path_47" data-name="Path 47" d="M190.5,59.229H74.916a9.937,9.937,0,0,1-9.931-9.171l.623-.063a9.315,9.315,0,0,0,9.309,8.6H190.5a9.308,9.308,0,0,0,9.309-8.6l.623.063a9.93,9.93,0,0,1-9.931,9.171" transform="translate(-64.983 -49.998)" fill="#fff"/>
            </g>
          </g>
        </g>
        <g id="Group_57" data-name="Group 57" transform="translate(156.513 -0.002)" style="mix-blend-mode: multiply;isolation: isolate">
          <g id="Group_56" data-name="Group 56">
            <g id="Mask_Group_55" data-name="Mask Group 55" clip-path="url(#clip-path-6)">
              <path id="Path_48" data-name="Path 48" d="M773.383,1.784A18.737,18.737,0,0,1,792.1,20.506V525.892H16.614V20.506A18.746,18.746,0,0,1,35.336,1.784H773.383m0-1.784H35.336A20.507,20.507,0,0,0,14.83,20.506V527.675H793.889V20.506A20.508,20.508,0,0,0,773.383,0" transform="translate(-14.828)" fill="#ebeff6"/>
            </g>
          </g>
        </g>
        <path id="Path_49" data-name="Path 49" d="M62.363,6.517a5.456,5.456,0,1,1-5.456-5.456,5.45,5.45,0,0,1,5.456,5.456" transform="translate(491.55 10.135)" fill="#fff"/>
      </g>
    </g>
  </g>
</svg>
