<svg xmlns="http://www.w3.org/2000/svg" width="47" height="38.192" viewBox="0 0 47 38.192">
  <g id="Group_1826" data-name="Group 1826" transform="translate(-814 -2018)">
    <rect id="Rectangle_79" data-name="Rectangle 79" width="45" height="31" rx="5" transform="translate(815 2019)" fill="none" stroke="#5ad6a6" stroke-miterlimit="10" stroke-width="2"/>
    <line id="Line_4" data-name="Line 4" x2="45.151" transform="translate(815 2042.352)" fill="none" stroke="#5ad6a6" stroke-miterlimit="10" stroke-width="2"/>
    <line id="Line_5" data-name="Line 5" y2="5.283" transform="translate(839.715 2049.908)" fill="none" stroke="#5ad6a6" stroke-miterlimit="10" stroke-width="2"/>
    <line id="Line_6" data-name="Line 6" x1="10.597" transform="translate(831.798 2055.192)" fill="none" stroke="#5ad6a6" stroke-linecap="round" stroke-miterlimit="10" stroke-width="2"/>
    <line id="Line_7" data-name="Line 7" y2="5.283" transform="translate(834.439 2049.908)" fill="none" stroke="#5ad6a6" stroke-miterlimit="10" stroke-width="2"/>
    <path id="Path_23" data-name="Path 23" d="M635.084,520.563l4.515-7.741a.348.348,0,0,1,.562-.056l3.45,3.909a.346.346,0,0,0,.556-.047l1.939-3.119a.346.346,0,0,1,.569-.03l3.345,4.266a.349.349,0,0,0,.56-.015l5.71-8.177" transform="translate(192.106 1517.542)" fill="none" stroke="#5ad6a6" stroke-linecap="round" stroke-miterlimit="10" stroke-width="2"/>
  </g>
</svg>
