<svg xmlns="http://www.w3.org/2000/svg" width="260" height="91.889" viewBox="0 0 260 91.889">
  <g id="Group_1171" data-name="Group 1171" transform="translate(-440.326 -472.884)">
    <g id="Group_1167" data-name="Group 1167" transform="translate(440.326 472.884)">
      <path id="Path_4434" data-name="Path 4434" d="M560.952,497.452a24.568,24.568,0,1,0-24.567,24.567A24.6,24.6,0,0,0,560.952,497.452Zm-24.567,19.432a19.432,19.432,0,1,1,19.432-19.432A19.454,19.454,0,0,1,536.385,516.884Z" transform="translate(-485.977 -472.884)"/>
      <g id="Group_1166" data-name="Group 1166" transform="translate(0 42.901)">
        <path id="Path_4435" data-name="Path 4435" d="M477.949,608.307v-5.426h-5.135v5.426a7.235,7.235,0,1,1-14.469,0v-7.72a9.009,9.009,0,0,0-18.019,0v2.539h5.136v-2.539a3.874,3.874,0,0,1,7.747,0v7.72a12.37,12.37,0,1,0,24.74,0Z" transform="translate(-440.326 -591.578)"/>
        <path id="Path_4436" data-name="Path 4436" d="M523.126,647.951a7.45,7.45,0,0,1-14.9,0v-2.265H503.09v2.265a12.585,12.585,0,0,0,25.171,0v-25.1h-5.135Z" transform="translate(-480.405 -611.547)"/>
        <path id="Path_4437" data-name="Path 4437" d="M643.774,591.578a9.02,9.02,0,0,0-9.01,9.009v7.72a7.234,7.234,0,1,1-14.468,0v-5.426H615.16v5.426a12.37,12.37,0,1,0,24.74,0v-7.72a3.874,3.874,0,0,1,7.747,0v2.539h5.136v-2.539A9.02,9.02,0,0,0,643.774,591.578Z" transform="translate(-551.968 -591.578)"/>
        <path id="Path_4438" data-name="Path 4438" d="M606.882,647.951a7.45,7.45,0,0,1-14.9,0v-25.1h-5.136v25.1a12.585,12.585,0,0,0,25.171,0v-2.265h-5.136Z" transform="translate(-533.889 -611.547)"/>
      </g>
    </g>
    <g id="Group_1168" data-name="Group 1168" transform="translate(557.759 505.341)">
      <path id="Path_4439" data-name="Path 4439" d="M765.23,584.7V562.684h5.086V584.7Z" transform="translate(-765.23 -562.684)"/>
      <path id="Path_4440" data-name="Path 4440" d="M830.365,572.11V584.7h-5.085V562.684h3.969l10.263,12.929V562.684H844.6V584.7H840.5Z" transform="translate(-803.575 -562.684)"/>
      <path id="Path_4441" data-name="Path 4441" d="M924.706,584.7V562.684h5.086v9.488l8.062-9.488h5.7l-8.248,9.829,8.807,12.185h-5.8l-6.232-8.867-2.294,2.387v6.48Z" transform="translate(-867.065 -562.684)"/>
      <path id="Path_4442" data-name="Path 4442" d="M1016.955,562.684l4.744,10.108,4.806-10.108h5.55l-7.845,14.511v7.5h-5.054v-7.566l-7.721-14.449Z" transform="translate(-922.448 -562.684)"/>
      <path id="Path_4443" data-name="Path 4443" d="M1108.146,562.684l4.744,10.108,4.807-10.108h5.55l-7.845,14.511v7.5h-5.054v-7.566l-7.721-14.449Z" transform="translate(-980.678 -562.684)"/>
    </g>
  </g>
</svg>
