<svg xmlns="http://www.w3.org/2000/svg" width="21.621" height="21.62" viewBox="0 0 21.621 21.62">
  <g id="send_1_" data-name="send (1)" transform="translate(0 -0.001)">
    <g id="Group_40" data-name="Group 40" transform="translate(0 0.001)">
      <path id="Path_36" data-name="Path 36" d="M21.436.186a.633.633,0,0,0-.683-.14L.4,8.188A.633.633,0,0,0,.357,9.346l8.026,3.893,3.893,8.026a.633.633,0,0,0,.57.357h.023a.633.633,0,0,0,.566-.4L21.576.87A.633.633,0,0,0,21.436.186ZM2.2,8.831,18.358,2.368,8.729,12Zm10.59,10.59L9.624,12.893l9.629-9.629Z" transform="translate(0 -0.001)" fill="#fff"/>
    </g>
  </g>
</svg>
